<?xml version="1.0" encoding="UTF-8" standalone="no"?>
<svg
   xmlns:dc="http://purl.org/dc/elements/1.1/"
   xmlns:cc="http://creativecommons.org/ns#"
   xmlns:rdf="http://www.w3.org/1999/02/22-rdf-syntax-ns#"
   xmlns:svg="http://www.w3.org/2000/svg"
   xmlns="http://www.w3.org/2000/svg"
   xmlns:sodipodi="http://sodipodi.sourceforge.net/DTD/sodipodi-0.dtd"
   xmlns:inkscape="http://www.inkscape.org/namespaces/inkscape"
   width="384"
   height="96"
   id="svg2"
   version="1.1"
   inkscape:version="0.47 r22583"
   sodipodi:docname="buttons.svg">
  <metadata
     id="metadata72">
    <rdf:RDF>
      <cc:Work
         rdf:about="">
        <dc:format>image/svg+xml</dc:format>
        <dc:type
           rdf:resource="http://purl.org/dc/dcmitype/StillImage" />
      </cc:Work>
    </rdf:RDF>
  </metadata>
  <sodipodi:namedview
     pagecolor="#ffffff"
     bordercolor="#666666"
     borderopacity="1"
     objecttolerance="10"
     gridtolerance="10"
     guidetolerance="10"
     inkscape:pageopacity="0"
     inkscape:pageshadow="2"
     inkscape:window-width="613"
     inkscape:window-height="496"
     id="namedview70"
     showgrid="true"
     inkscape:zoom="1"
     inkscape:cx="202.70247"
     inkscape:cy="41.723572"
     inkscape:window-x="0"
     inkscape:window-y="0"
     inkscape:window-maximized="0"
     inkscape:current-layer="svg2">
    <inkscape:grid
       type="xygrid"
       id="grid3654"
       empspacing="8"
       visible="true"
       enabled="true"
       snapvisiblegridlinesonly="true" />
  </sodipodi:namedview>
  <defs
     id="defs4">
    <style
       type="text/css"
       id="style6">
      path { fill:#ffffff; }
    </style>
  </defs>
  <rect
     style="fill:#111117"
     width="384"
     height="96"
     x="0"
     y="0"
     id="rect8" />
  <g
     id="minimize">
    <path
       d="m 6.5,10 19,0 L 16,26 6.5,10 z"
       id="path11"
       style="fill:#ffffff" />
  </g>
  <g
     id="legend"
     transform="translate(32,0)">
    <path
       style="fill:#ffffff;stroke:#333348"
       d="m 13,13 3,3 3,-3 -3,-9 -3,9 z"
       id="path14" />
    <path
       style="fill:#ffffff;stroke:#333348"
       d="m 19,13 -3,3 3,3 9,-3 -9,-3 z"
       id="path16" />
    <path
       style="fill:#ffffff;stroke:#333348"
       d="m 19,19 -3,-3 -3,3 3,9 3,-9 z"
       id="path18" />
    <path
       style="fill:#ffffff;stroke:#333348"
       d="m 13,19 3,-3 -3,-3 -9,3 9,3 z"
       id="path20" />
  </g>
  <g
     id="beginning"
     transform="translate(64,0)">
    <path
       d="m 21,6.5 0,19 -9,-9.5 9,-9.5 z"
       id="path23"
       style="fill:#ffffff" />
    <path
       style="fill:#ffffff;stroke:#ffffff;stroke-width:2"
       d="m 12,6.5 0,19"
       id="path25" />
  </g>
  <g
     id="rewind"
     transform="translate(96,0)">
    <path
       d="m 25,6.5 0,19 -9,-9.5 9,-9.5 z"
       id="path28"
       style="fill:#ffffff" />
    <path
       d="m 16,6.5 0,19 L 7,16 16,6.5 z"
       id="path30"
       style="fill:#ffffff" />
  </g>
  <g
     id="step_back"
     transform="translate(128,0)">
    <path
       d="m 18,6.5 0,19 L 9,16 18,6.5 z"
       id="path33"
       style="fill:#ffffff" />
    <path
       style="fill:#ffffff;stroke:#ffffff;stroke-width:2"
       d="m 22,6.5 0,19"
       id="path35" />
  </g>
  <g
     id="pause"
     transform="translate(160,0)">
    <rect
       style="fill:#ffffff"
       width="5"
       height="19"
       x="19"
       y="6.5"
       id="rect38" />
    <rect
       style="fill:#ffffff"
       width="5"
       height="19"
       x="8"
       y="6.5"
       id="rect40" />
  </g>
  <g
     id="play"
     transform="translate(192,0)">
    <path
       d="M 8,6.5 8,25.5 24,16 8,6.5 z"
       id="path43"
       style="fill:#ffffff" />
  </g>
  <g
     id="step_fwd"
     transform="translate(224,0)">
    <path
       d="m 14,6.5 0,19 9,-9.5 -9,-9.5 z"
       id="path46"
       style="fill:#ffffff" />
    <path
       style="fill:#ffffff;stroke:#ffffff;stroke-width:2"
       d="m 10,6.5 0,19"
       id="path48" />
  </g>
  <g
     id="fast_forward"
     transform="translate(256,0)">
    <path
       d="M 7,6.5 7,25.5 16,16 7,6.5 z"
       id="path51"
       style="fill:#ffffff" />
    <path
       d="m 16,6.5 0,19 9,-9.5 -9,-9.5 z"
       id="path53"
       style="fill:#ffffff" />
  </g>
  <g
     id="end"
     transform="translate(288,0)">
    <path
       d="m 11,6.5 0,19 9,-9.5 -9,-9.5 z"
       id="path56"
       style="fill:#ffffff" />
    <path
       style="fill:#ffffff;stroke:#ffffff;stroke-width:2"
       d="m 20,6.5 0,19"
       id="path58" />
  </g>
  <g
     id="config"
     transform="translate(320,0)">
    <path
       d="M 27.843091,24.0586 16.282795,12.7249 C 19.508465,5.3939 11.046511,0.7705 9.3915911,3.7811 8.0181238,6.2796 11.737532,7.8865 11.737532,7.8865 l -0.733106,3.079 -3.0790492,0.7331 c 0,0 -1.6068531,-3.7195 -4.1053987,-2.3459 -3.0105476,1.6549 1.6128352,10.1169 8.9439039,6.8911 l 11.267054,11.6269 c 3.241018,3.3445 7.13777,-0.5518 3.812155,-3.8121 z"
       sodipodi:nodetypes="ccscccscss"
       id="path61"
       style="fill:#ffffff" />
  </g>
  <g
     id="help"
     transform="translate(352,0)">
    <circle
       style="fill:#ffffff"
       cx="16"
       cy="16"
       r="14"
       id="circle64"
       d="M 30,16 C 30,23.731986 23.731986,30 16,30 8.2680135,30 2,23.731986 2,16 2,8.2680135 8.2680135,2 16,2 23.731986,2 30,8.2680135 30,16 z"
       sodipodi:cx="16"
       sodipodi:cy="16"
       sodipodi:rx="14"
       sodipodi:ry="14" />
    <rect
       style="fill:#111117"
       width="8.1983232"
       height="14.029475"
       x="11.900839"
       y="13.3945"
       id="rect66" />
    <circle
       style="fill:#111117"
       cx="15.999811"
       cy="7.6750002"
       r="4.0991616"
       id="circle68"
       d="m 20.098973,7.6750002 c 0,2.2639044 -1.835257,4.0991618 -4.099162,4.0991618 -2.263904,0 -4.099161,-1.8352574 -4.099161,-4.0991618 0,-2.2639045 1.835257,-4.0991616 4.099161,-4.0991616 2.263905,0 4.099162,1.8352571 4.099162,4.0991616 z"
       sodipodi:cx="15.999811"
       sodipodi:cy="7.6750002"
       sodipodi:rx="4.0991616"
       sodipodi:ry="4.0991616" />
  </g>
  <path
     sodipodi:type="arc"
     style="fill:none;stroke:#ffffff;stroke-width:4;stroke-miterlimit:4;stroke-dasharray:none"
     id="path3656"
     sodipodi:cx="16"
     sodipodi:cy="48"
     sodipodi:rx="10"
     sodipodi:ry="10"
     d="M 7.3397458,43 A 10,10 0 1 1 13.41181,57.659258"
     sodipodi:start="3.6651914"
     sodipodi:end="8.115781"
     sodipodi:open="true"
     transform="translate(96,0)" />
  <path
     d="m 100.88638,38.696798 8.22724,4.75 L 101,48 100.88638,38.696798 z"
     id="path11-8"
     style="fill:#ffffff" />
  <path
     sodipodi:open="true"
     sodipodi:end="8.115781"
     sodipodi:start="3.6651914"
     d="M 7.3397458,43 A 10,10 0 1 1 13.41181,57.659258"
     sodipodi:ry="10"
     sodipodi:rx="10"
     sodipodi:cy="48"
     sodipodi:cx="16"
     id="path3682"
     style="fill:none;stroke:#ffffff;stroke-width:4;stroke-miterlimit:4;stroke-dasharray:none"
     sodipodi:type="arc"
     transform="matrix(-1,0,0,1,160,0)" />
  <path
     style="fill:#ffffff"
     id="path3684"
     d="m 155.11362,38.696798 -8.22724,4.75 L 155,48 l 0.11362,-9.303202 z" />
  <rect
     style="fill:none;stroke:#ffffff;stroke-width:2;stroke-linecap:round;stroke-linejoin:miter;stroke-miterlimit:4;stroke-opacity:1;stroke-dasharray:none;stroke-dashoffset:0"
     id="rect3688"
     width="8"
     height="8"
     x="13"
     y="51" />
  <path
     style="fill:#ffffff;stroke:none"
     d="m 22,50 c 0,0 0,2 0,4 4,0 6,-3 6,-6 0,-8 -4,-8 -7,-8 l -4,0 c 0.0625,-0.9375 0,-4 0,-4 l -12,7 12,7 c 0,0 0,-3 0,-4 0.791282,0 2.033546,0 4,0 2,0 2,2 2,3 0,0.617187 -0.664062,1 -1,1 z"
     id="path3690"
     sodipodi:nodetypes="ccsscccccssc" />
  <path
     style="fill:#ffffff;stroke:none"
     d="m 46,36 4,0 0,9 3,0 -5,8 -5,-8 3,0 0,-9 z"
     id="path3694"
     sodipodi:nodetypes="cccccccc" />
  <path
     style="fill:#ffffff;stroke:none"
     d="m 38,60 14,0 4,-7 -14,0 -4,7 z"
     id="path3698"
     sodipodi:nodetypes="ccccc" />
  <path
     sodipodi:nodetypes="cccccccc"
     id="path3702"
     d="m 82,60 -4,0 0,-9 -3,0 5,-8 5,8 -3,0 0,9 z"
     style="fill:#ffffff;stroke:none" />
  <path
     sodipodi:nodetypes="ccccc"
     id="path3704"
     d="m 72,43 14,0 4,-7 -14,0 -4,7 z"
     style="fill:#ffffff;stroke:none" />
  <path
     style="fill:none;stroke:#ffffff;stroke-width:2;stroke-linecap:butt;stroke-linejoin:miter;stroke-miterlimit:4;stroke-opacity:1;stroke-dasharray:none"
     d="m 232,36 0,24 16,0 0,-18 -6,-6 -10,0 z"
     id="path3716"
     sodipodi:nodetypes="cccccc" />
  <path
     style="fill:#ffffff;stroke:none"
     d="m 248,42 -6,-6 0,6 6,0 z"
     id="path3718"
     sodipodi:nodetypes="cccc" />
  <rect
     style="fill:none;stroke:#ffffff;stroke-width:2;stroke-miterlimit:4;stroke-dasharray:none"
     id="rect3722"
     width="24"
     height="16"
     x="164"
     y="40" />
  <rect
     style="fill:none;stroke:#ffffff;stroke-width:2;stroke-miterlimit:4;stroke-dasharray:none"
     id="rect2870"
     width="8.9999924"
     height="9"
     x="108"
     y="76" />
  <path
     style="fill:none;stroke:#ffffff;stroke-width:2;stroke-miterlimit:4"
     d="m 126,85 -3,0 0,-9 3,0"
     id="rect3644"
     sodipodi:nodetypes="cccc" />
  <path
     style="fill:none;stroke:#ffffff;stroke-width:2;stroke-miterlimit:4"
     d="m 98,76 3.99999,0 0,9 L 98,85"
     id="rect3646"
     sodipodi:nodetypes="cccc" />
  <path
     style="fill:none;stroke:#ffffff;stroke-width:2;stroke-miterlimit:4"
     d="m 117,66 -1e-5,4 -8.99999,0 1e-5,-4"
     id="rect3648"
     sodipodi:nodetypes="cccc" />
  <path
     style="fill:none;stroke:#ffffff;stroke-width:2;stroke-miterlimit:4"
     d="m 126,70 -3,0 0,-4"
     id="rect3650"
     sodipodi:nodetypes="ccc" />
  <path
     style="fill:none;stroke:#ffffff;stroke-width:2;stroke-miterlimit:4"
     d="m 102,66 -1e-5,4 L 98,70"
     id="rect3652"
     sodipodi:nodetypes="ccc" />
  <path
     style="fill:none;stroke:#ffffff;stroke-width:2;stroke-miterlimit:4"
     d="m 108.00001,94 -1e-5,-3 8.99999,0 1e-5,3"
     id="rect3654"
     sodipodi:nodetypes="cccc" />
  <path
     style="fill:none;stroke:#ffffff;stroke-width:2;stroke-miterlimit:4"
     d="m 123,94 0,-3 3,0"
     id="rect3656"
     sodipodi:nodetypes="ccc" />
  <path
     style="fill:none;stroke:#ffffff;stroke-width:2;stroke-miterlimit:4"
     d="m 98,91 3.99999,0 1e-5,3"
     id="rect3658"
     sodipodi:nodetypes="ccc" />
  <path
     sodipodi:type="arc"
     style="fill:none;stroke:#ffffff;stroke-width:2;stroke-linecap:round;stroke-linejoin:miter;stroke-miterlimit:4;stroke-opacity:1;stroke-dasharray:none;stroke-dashoffset:0"
     id="path3678"
     sodipodi:cx="280"
     sodipodi:cy="39"
     sodipodi:rx="13"
     sodipodi:ry="4"
     d="m 293,39 a 13,4 0 1 1 -26,0 13,4 0 1 1 26,0 z"
     transform="translate(-200,32)" />
  <path
     sodipodi:type="arc"
     style="fill:none;stroke:#ffffff;stroke-width:2;stroke-linecap:round;stroke-linejoin:miter;stroke-miterlimit:4;stroke-opacity:1;stroke-dasharray:none;stroke-dashoffset:0"
     id="path3680"
     sodipodi:cx="271.5"
     sodipodi:cy="53"
     sodipodi:rx="4.5"
     sodipodi:ry="8"
     d="m 276,53 a 4.5,8 0 1 1 -9,0 4.5,8 0 1 1 9,0 z"
     transform="translate(-200,32)" />
  <path
     sodipodi:type="arc"
     style="fill:none;stroke:#ffffff;stroke-width:2;stroke-linecap:round;stroke-linejoin:miter;stroke-miterlimit:4;stroke-opacity:1;stroke-dasharray:none;stroke-dashoffset:0"
     id="path3687"
     sodipodi:cx="285.5"
     sodipodi:cy="53.5"
     sodipodi:rx="6.5"
     sodipodi:ry="6.5"
     d="m 292,53.5 a 6.5,6.5 0 1 1 -13,0 6.5,6.5 0 1 1 13,0 z"
     transform="translate(-199,31)" />
  <path
     sodipodi:type="arc"
     style="fill:none;stroke:#ffffff;stroke-width:2;stroke-linecap:round;stroke-linejoin:miter;stroke-miterlimit:4;stroke-opacity:1;stroke-dasharray:none;stroke-dashoffset:0"
     id="path3695"
     sodipodi:cx="315.5"
     sodipodi:cy="45.5"
     sodipodi:rx="7.5"
     sodipodi:ry="7.5"
     d="m 323,45.5 a 7.5,7.5 0 1 1 -15,0 7.5,7.5 0 1 1 15,0 z"
     transform="translate(-143,31)" />
  <path
     style="fill:#ffffff;stroke:none"
     d="m 188,90 -2,2 -9,-9 2,-2 9,9 z"
     id="path3697"
     sodipodi:nodetypes="ccccc" />
  <path
     style="fill:none;stroke:#ffffff;stroke-width:2;stroke-linecap:butt;stroke-linejoin:miter;stroke-miterlimit:4;stroke-opacity:1;stroke-dasharray:none"
     d="m 168,40 0,16"
     id="path2880"
     sodipodi:nodetypes="cc" />
  <path
     sodipodi:nodetypes="cc"
     id="path3654"
     d="m 179,40 0,16"
     style="fill:none;stroke:#ffffff;stroke-width:4;stroke-linecap:butt;stroke-linejoin:miter;stroke-miterlimit:4;stroke-opacity:1;stroke-dasharray:none" />
  <path
     sodipodi:nodetypes="cc"
     id="path3657"
     d="m 174,40 0,16"
     style="fill:none;stroke:#ffffff;stroke-width:2;stroke-linecap:butt;stroke-linejoin:miter;stroke-miterlimit:4;stroke-opacity:1;stroke-dasharray:none" />
  <path
     style="fill:none;stroke:#ffffff;stroke-width:2;stroke-linecap:butt;stroke-linejoin:miter;stroke-miterlimit:4;stroke-opacity:1;stroke-dasharray:none"
     d="m 184,40 0,16"
     id="path3659"
     sodipodi:nodetypes="cc" />
  <path
     sodipodi:nodetypes="cc"
     id="path3662"
     d="m 197,42 0,12"
     style="fill:none;stroke:#ffffff;stroke-width:2;stroke-linecap:butt;stroke-linejoin:miter;stroke-miterlimit:4;stroke-opacity:1;stroke-dasharray:none" />
  <path
     style="fill:none;stroke:#ffffff;stroke-width:2;stroke-linecap:butt;stroke-linejoin:miter;stroke-miterlimit:4;stroke-opacity:1;stroke-dasharray:none"
     d="m 217,42 0,12"
     id="path3664"
     sodipodi:nodetypes="cc" />
  <path
     id="rect3697"
     style="fill:#ffffff;fill-opacity:1;fill-rule:nonzero;stroke:none"
     d="m 198,38 2,0 0,2 -2,0 0,-2 z m 4,0 2,0 0,2 -2,0 0,-2 z m 4,0 2,0 0,2 -2,0 0,-2 z m 4,0 2,0 0,2 -2,0 0,-2 z m 4,0 2,0 0,2 -2,0 0,-2 z m 4,0 2,0 0,2 -2,0 0,-2 z m -24,4 28,0 0,-6 -28,0 0,2 2,0 0,2 -2,0 0,2 z" />
  <path
     d="m 198,56 2,0 0,2 -2,0 0,-2 z m 4,0 2,0 0,2 -2,0 0,-2 z m 4,0 2,0 0,2 -2,0 0,-2 z m 4,0 2,0 0,2 -2,0 0,-2 z m 4,0 2,0 0,2 -2,0 0,-2 z m 4,0 2,0 0,2 -2,0 0,-2 z m -24,4 28,0 0,-6 -28,0 0,2 2,0 0,2 -2,0 0,2 z"
     style="fill:#ffffff;fill-opacity:1;fill-rule:nonzero;stroke:none"
     id="path3770" />
  <path
     sodipodi:nodetypes="cc"
     id="path3665"
     d="m 153,71 -6,6"
     style="fill:none;stroke:#ffffff;stroke-width:2;stroke-linecap:butt;stroke-linejoin:miter;stroke-miterlimit:4;stroke-opacity:1;stroke-dasharray:none" />
  <path
     id="path3667"
     style="fill:none;stroke:#ffffff;stroke-width:2;stroke-linecap:butt;stroke-linejoin:miter;stroke-miterlimit:4;stroke-opacity:1;stroke-dasharray:none"
     d="m 133,77 0,14 14,0 6,-6 0,-14 -14,0 -6,6 z"
     sodipodi:nodetypes="ccccccc" />
  <path
     style="fill:none;stroke:#ffffff;stroke-width:2;stroke-linecap:butt;stroke-linejoin:miter;stroke-miterlimit:4;stroke-opacity:1;stroke-dasharray:none"
     d="m 133,77 14,0 0,14"
     id="path3670" />
  <path
     style="fill:none;stroke:#ffffff;stroke-width:2;stroke-linecap:butt;stroke-linejoin:miter;stroke-miterlimit:4;stroke-opacity:1;stroke-dasharray:none"
     d="m 4,73 9,7 -9,7"
     id="path2891"
     sodipodi:nodetypes="ccc" />
  <path
     style="fill:none;stroke:#ffffff;stroke-width:2;stroke-linecap:butt;stroke-linejoin:miter;stroke-miterlimit:4;stroke-opacity:1;stroke-dasharray:none"
     d="m 18,87 10,0"
     id="path2893"
     sodipodi:nodetypes="cc" />
  <path
     style="font-size:medium;font-style:normal;font-variant:normal;font-weight:normal;font-stretch:normal;text-indent:0;text-align:start;text-decoration:none;line-height:normal;letter-spacing:normal;word-spacing:normal;text-transform:none;direction:ltr;block-progression:tb;writing-mode:lr-tb;text-anchor:start;color:#000000;fill:#ffffff;fill-opacity:1;stroke:none;stroke-width:2;marker:none;visibility:visible;display:inline;overflow:visible;enable-background:accumulate;font-family:Aharoni CLM;-inkscape-font-specification:Aharoni CLM"
     d="m 47,68 0,2 10,0 0,-2 -10,0 z M 43,70.03125 37.21875,78 39,78 39,78.96875 44.8125,71 43,71 43,70.03125 z m 14,0 L 51.21875,78 53,78 53,78.96875 58.78125,71 57,71 57,70.03125 z m -18,11 L 39,82 37.21875,82 43,89.96875 43,89 44.8125,89 39,81.03125 z m 14,0 L 53,82 51.21875,82 57,89.96875 57,89 58.78125,89 53,81.03125 z M 47,90 l 0,2 10,0 0,-2 -10,0 z"
     id="path3679" />
  <rect
     style="fill:none;stroke:#ffffff;stroke-width:2;stroke-linecap:round;stroke-linejoin:miter;stroke-miterlimit:4;stroke-opacity:1;stroke-dasharray:none;stroke-dashoffset:0"
     id="rect3681"
     width="4"
     height="4"
     x="43"
     y="67" />
  <rect
     y="67"
     x="57"
     height="4"
     width="4"
     id="rect3683"
     style="fill:none;stroke:#ffffff;stroke-width:2;stroke-linecap:round;stroke-linejoin:miter;stroke-miterlimit:4;stroke-opacity:1;stroke-dasharray:none;stroke-dashoffset:0" />
  <rect
     y="89"
     x="43"
     height="4"
     width="4"
     id="rect3685"
     style="fill:none;stroke:#ffffff;stroke-width:2;stroke-linecap:round;stroke-linejoin:miter;stroke-miterlimit:4;stroke-opacity:1;stroke-dasharray:none;stroke-dashoffset:0" />
  <rect
     style="fill:none;stroke:#ffffff;stroke-width:2;stroke-linecap:round;stroke-linejoin:miter;stroke-miterlimit:4;stroke-opacity:1;stroke-dasharray:none;stroke-dashoffset:0"
     id="rect3687"
     width="4"
     height="4"
     x="57"
     y="89" />
  <rect
     y="78"
     x="35"
     height="4"
     width="4"
     id="rect3689"
     style="fill:none;stroke:#ffffff;stroke-width:2;stroke-linecap:round;stroke-linejoin:miter;stroke-miterlimit:4;stroke-opacity:1;stroke-dasharray:none;stroke-dashoffset:0" />
  <rect
     style="fill:none;stroke:#ffffff;stroke-width:2;stroke-linecap:round;stroke-linejoin:miter;stroke-miterlimit:4;stroke-opacity:1;stroke-dasharray:none;stroke-dashoffset:0"
     id="rect3691"
     width="4"
     height="4"
     x="49"
     y="78" />
</svg>
