<?xml version="1.0" encoding="UTF-8" standalone="no"?>
<!-- Created with Inkscape (http://www.inkscape.org/) -->

<svg
   xmlns:svg="http://www.w3.org/2000/svg"
   xmlns="http://www.w3.org/2000/svg"
   version="1.1"
   width="32"
   height="32"
   id="svg3527">
  <defs
     id="defs3537" />
  <rect
     width="32"
     height="32"
     x="0"
     y="0"
     id="rect3529"
     style="fill:#111117" />
  <path
     d="m 293,39 a 13,4 0 1 1 -26,0 13,4 0 1 1 26,0 z"
     transform="translate(-264,-32)"
     id="path3678"
     style="fill:none;stroke:#ffffff;stroke-width:2;stroke-linecap:round;stroke-linejoin:miter;stroke-miterlimit:4;stroke-opacity:1;stroke-dasharray:none;stroke-dashoffset:0" />
  <path
     d="m 276,53 a 4.5,8 0 1 1 -9,0 4.5,8 0 1 1 9,0 z"
     transform="translate(-264,-32)"
     id="path3680"
     style="fill:none;stroke:#ffffff;stroke-width:2;stroke-linecap:round;stroke-linejoin:miter;stroke-miterlimit:4;stroke-opacity:1;stroke-dasharray:none;stroke-dashoffset:0" />
  <path
     d="m 292,53.5 a 6.5,6.5 0 1 1 -13,0 6.5,6.5 0 1 1 13,0 z"
     transform="translate(-263,-33)"
     id="path3687"
     style="fill:none;stroke:#ffffff;stroke-width:2;stroke-linecap:round;stroke-linejoin:miter;stroke-miterlimit:4;stroke-opacity:1;stroke-dasharray:none;stroke-dashoffset:0" />
</svg>
