<?xml version="1.0" encoding="UTF-8" standalone="no"?>
<!-- Created with Inkscape (http://www.inkscape.org/) -->

<svg
   xmlns:svg="http://www.w3.org/2000/svg"
   xmlns="http://www.w3.org/2000/svg"
   version="1.1"
   width="32"
   height="32"
   id="svg3415">
  <defs
     id="defs3425" />
  <rect
     width="32"
     height="32"
     x="0"
     y="0"
     id="rect3417"
     style="fill:#111117" />
  <path
     d="M 5,10 5,22"
     id="path3662"
     style="fill:none;stroke:#ffffff;stroke-width:2;stroke-linecap:butt;stroke-linejoin:miter;stroke-miterlimit:4;stroke-opacity:1;stroke-dasharray:none" />
  <path
     d="m 25,10 0,12"
     id="path3664"
     style="fill:none;stroke:#ffffff;stroke-width:2;stroke-linecap:butt;stroke-linejoin:miter;stroke-miterlimit:4;stroke-opacity:1;stroke-dasharray:none" />
  <path
     d="M 6,6 8,6 8,8 6,8 6,6 z m 4,0 2,0 0,2 -2,0 0,-2 z m 4,0 2,0 0,2 -2,0 0,-2 z m 4,0 2,0 0,2 -2,0 0,-2 z m 4,0 2,0 0,2 -2,0 0,-2 z m 4,0 2,0 0,2 -2,0 0,-2 z M 2,10 30,10 30,4 2,4 2,6 4,6 4,8 2,8 2,10 z"
     id="rect3697"
     style="fill:#ffffff;fill-opacity:1;fill-rule:nonzero;stroke:none" />
  <path
     d="m 6,24 2,0 0,2 -2,0 0,-2 z m 4,0 2,0 0,2 -2,0 0,-2 z m 4,0 2,0 0,2 -2,0 0,-2 z m 4,0 2,0 0,2 -2,0 0,-2 z m 4,0 2,0 0,2 -2,0 0,-2 z m 4,0 2,0 0,2 -2,0 0,-2 z m -24,4 28,0 0,-6 -28,0 0,2 2,0 0,2 -2,0 0,2 z"
     id="path3770"
     style="fill:#ffffff;fill-opacity:1;fill-rule:nonzero;stroke:none" />
</svg>
